<svg width="97" height="19" viewBox="0 0 97 19" fill="none" xmlns="http://www.w3.org/2000/svg">
<path d="M2.04 15.72C1.656 15.72 1.368 15.56 1.176 15.24C0.984 14.92 0.888 14.552 0.888 14.136C0.888 13.72 0.984 13.36 1.176 13.056C1.368 12.736 1.656 12.576 2.04 12.576C1.496 12.576 1.128 12.464 0.936 12.24C0.76 12.016 0.76 11.792 0.936 11.568C1.128 11.344 1.496 11.232 2.04 11.232C1.576 11.232 1.224 11.12 0.984 10.896C0.76 10.656 0.648 10.384 0.648 10.08C0.648 9.776 0.76 9.512 0.984 9.288C1.224 9.048 1.576 8.928 2.04 8.928C1.624 8.928 1.312 8.808 1.104 8.568C0.896 8.312 0.792 8.024 0.792 7.704C0.792 7.368 0.896 7.072 1.104 6.816C1.312 6.56 1.624 6.432 2.04 6.432C1.64 6.432 1.344 6.272 1.152 5.952C0.96 5.616 0.864 5.24 0.864 4.824C0.864 4.392 0.96 4.016 1.152 3.696C1.344 3.36 1.64 3.192 2.04 3.192C1.528 3.192 1.184 3.104 1.008 2.928C0.848 2.752 0.848 2.576 1.008 2.4C1.184 2.224 1.528 2.136 2.04 2.136C1.928 1.512 1.952 1.08 2.112 0.839999C2.272 0.599999 2.464 0.567999 2.688 0.743999C2.928 0.903999 3.104 1.296 3.216 1.92C3.216 1.552 3.336 1.256 3.576 1.032C3.816 0.808 4.12 0.656 4.488 0.576C4.856 0.496 5.216 0.496 5.568 0.576C5.936 0.656 6.24 0.808 6.48 1.032C6.72 1.256 6.84 1.552 6.84 1.92C6.84 1.408 6.944 1.072 7.152 0.912C7.36 0.735999 7.568 0.735999 7.776 0.912C7.984 1.072 8.088 1.408 8.088 1.92C8.12 1.488 8.304 1.176 8.64 0.983999C8.976 0.775999 9.36 0.687999 9.792 0.719999C10.224 0.735999 10.592 0.863999 10.896 1.104C11.216 1.344 11.368 1.672 11.352 2.088C11.496 1.496 11.672 1.12 11.88 0.959999C12.088 0.799999 12.24 0.839999 12.336 1.08C12.448 1.32 12.432 1.736 12.288 2.328C12.496 1.928 12.752 1.688 13.056 1.608C13.36 1.512 13.64 1.536 13.896 1.68C14.152 1.808 14.32 2.024 14.4 2.328C14.496 2.632 14.44 2.976 14.232 3.36C14.52 3.152 14.8 3.088 15.072 3.168C15.344 3.232 15.56 3.384 15.72 3.624C15.88 3.848 15.944 4.096 15.912 4.368C15.88 4.64 15.712 4.88 15.408 5.088C15.696 5.088 15.928 5.2 16.104 5.424C16.296 5.648 16.424 5.936 16.488 6.288C16.568 6.624 16.584 6.968 16.536 7.32C16.504 7.672 16.4 7.968 16.224 8.208C16.064 8.448 15.84 8.576 15.552 8.592C15.872 8.8 16.024 9.072 16.008 9.408C16.008 9.728 15.904 10.04 15.696 10.344C15.504 10.648 15.256 10.864 14.952 10.992C14.648 11.104 14.344 11.056 14.04 10.848C14.2 11.216 14.248 11.528 14.184 11.784C14.12 12.024 13.984 12.2 13.776 12.312C13.568 12.408 13.344 12.408 13.104 12.312C12.864 12.2 12.656 11.968 12.48 11.616C12.528 11.984 12.432 12.28 12.192 12.504C11.952 12.728 11.648 12.88 11.28 12.96C10.912 13.04 10.56 13.032 10.224 12.936C9.888 12.84 9.656 12.64 9.528 12.336C9.624 12.832 9.488 13.232 9.12 13.536C8.768 13.84 8.384 13.976 7.968 13.944C8.048 14.216 8.064 14.496 8.016 14.784C7.968 15.072 7.84 15.32 7.632 15.528C7.44 15.736 7.176 15.84 6.84 15.84C7.432 15.84 7.824 15.96 8.016 16.2C8.224 16.424 8.224 16.656 8.016 16.896C7.824 17.136 7.432 17.256 6.84 17.256C6.84 17.624 6.72 17.904 6.48 18.096C6.256 18.288 5.992 18.384 5.688 18.384C5.384 18.384 5.112 18.288 4.872 18.096C4.648 17.92 4.536 17.648 4.536 17.28C4.536 17.76 4.432 18.08 4.224 18.24C4.016 18.4 3.808 18.4 3.6 18.24C3.392 18.08 3.288 17.76 3.288 17.28C3.288 17.664 3.224 17.944 3.096 18.12C2.968 18.296 2.816 18.336 2.64 18.24C2.464 18.16 2.312 17.92 2.184 17.52C2.072 17.104 2.024 16.504 2.04 15.72ZM6.72 6.768C7.008 6.768 7.224 6.896 7.368 7.152C7.512 7.408 7.608 7.696 7.656 8.016C7.704 8.336 7.728 8.592 7.728 8.784C7.808 8.592 7.96 8.448 8.184 8.352C8.408 8.24 8.648 8.184 8.904 8.184C9.176 8.184 9.416 8.232 9.624 8.328C9.496 8.072 9.496 7.888 9.624 7.776C9.768 7.648 9.976 7.664 10.248 7.824C10.168 7.632 10.152 7.408 10.2 7.152C10.248 6.896 10.36 6.712 10.536 6.6C10.312 6.6 10.144 6.512 10.032 6.336C9.936 6.16 9.92 5.976 9.984 5.784C9.824 5.864 9.68 5.856 9.552 5.76C9.424 5.648 9.376 5.488 9.408 5.28C9.28 5.44 9.088 5.544 8.832 5.592C8.576 5.64 8.32 5.624 8.064 5.544C7.824 5.464 7.672 5.32 7.608 5.112C7.656 5.496 7.568 5.728 7.344 5.808C7.376 6.032 7.336 6.248 7.224 6.456C7.128 6.664 6.96 6.768 6.72 6.768ZM18.9619 14.952C18.5779 14.952 18.2819 14.824 18.0739 14.568C17.8819 14.296 17.7859 13.984 17.7859 13.632C17.7859 13.264 17.8819 12.952 18.0739 12.696C18.2819 12.424 18.5779 12.288 18.9619 12.288C18.5779 12.288 18.2899 12.184 18.0979 11.976C17.9219 11.768 17.8339 11.536 17.8339 11.28C17.8339 11.008 17.9219 10.776 18.0979 10.584C18.2899 10.376 18.5779 10.272 18.9619 10.272C18.3699 10.272 17.9699 10.152 17.7619 9.912C17.5699 9.672 17.5699 9.432 17.7619 9.192C17.9699 8.952 18.3699 8.832 18.9619 8.832C18.5619 8.832 18.2579 8.736 18.0499 8.544C17.8419 8.352 17.7379 8.128 17.7379 7.872C17.7379 7.616 17.8419 7.392 18.0499 7.2C18.2579 7.008 18.5619 6.912 18.9619 6.912C18.5139 6.912 18.1779 6.768 17.9539 6.48C17.7459 6.192 17.6419 5.864 17.6419 5.496C17.6419 5.112 17.7459 4.776 17.9539 4.488C18.1779 4.2 18.5139 4.056 18.9619 4.056C18.6579 3.96 18.4659 3.784 18.3859 3.528C18.3219 3.256 18.3299 2.984 18.4099 2.712C18.5059 2.424 18.6579 2.2 18.8659 2.04C19.0899 1.864 19.3539 1.824 19.6579 1.92C19.6579 1.424 19.7459 1.096 19.9219 0.935999C20.0979 0.776 20.2739 0.776 20.4499 0.935999C20.6259 1.096 20.7139 1.424 20.7139 1.92C20.7139 1.632 20.8339 1.4 21.0739 1.224C21.3139 1.048 21.6099 0.935999 21.9619 0.887999C22.3299 0.823999 22.6899 0.823999 23.0419 0.887999C23.4099 0.935999 23.7139 1.048 23.9539 1.224C24.2099 1.4 24.3379 1.632 24.3379 1.92C24.3379 1.408 24.4579 1.072 24.6979 0.912C24.9539 0.735999 25.2099 0.735999 25.4659 0.912C25.7219 1.072 25.8499 1.408 25.8499 1.92C25.8499 1.488 25.9539 1.168 26.1619 0.959999C26.3699 0.751999 26.6019 0.647999 26.8579 0.647999C27.1299 0.647999 27.3619 0.751999 27.5539 0.959999C27.7619 1.168 27.8659 1.488 27.8659 1.92C27.8659 1.632 27.9779 1.4 28.2019 1.224C28.4259 1.048 28.6979 0.935999 29.0179 0.887999C29.3539 0.823999 29.6899 0.823999 30.0259 0.887999C30.3619 0.935999 30.6419 1.048 30.8659 1.224C31.0899 1.4 31.2019 1.632 31.2019 1.92C31.6819 1.968 31.9939 2.072 32.1379 2.232C32.2979 2.376 32.2899 2.52 32.1139 2.664C31.9379 2.792 31.6099 2.832 31.1299 2.784C31.5459 2.832 31.8499 2.984 32.0419 3.24C32.2339 3.496 32.3139 3.784 32.2819 4.104C32.2499 4.408 32.1139 4.672 31.8739 4.896C31.6499 5.104 31.3299 5.192 30.9139 5.16C30.9139 5.672 30.8259 6.016 30.6499 6.192C30.4739 6.352 30.2979 6.352 30.1219 6.192C29.9459 6.016 29.8579 5.672 29.8579 5.16C29.8579 5.64 29.7299 5.968 29.4739 6.144C29.2339 6.304 28.9859 6.304 28.7299 6.144C28.4739 5.968 28.3459 5.64 28.3459 5.16C28.3459 5.4 28.2259 5.592 27.9859 5.736C27.7459 5.88 27.4499 5.968 27.0979 6C26.7619 6.032 26.4259 6.024 26.0899 5.976C25.7539 5.912 25.4979 5.792 25.3219 5.616C25.3539 5.808 25.3379 5.992 25.2739 6.168C25.2099 6.344 25.1059 6.496 24.9619 6.624C25.1539 6.752 25.3059 6.912 25.4179 7.104C25.5459 7.28 25.6179 7.472 25.6339 7.68C25.7619 7.488 25.9539 7.36 26.2099 7.296C26.4659 7.216 26.7299 7.192 27.0019 7.224C27.2739 7.256 27.5059 7.352 27.6979 7.512C27.8899 7.656 27.9859 7.856 27.9859 8.112C27.9859 7.76 28.0739 7.496 28.2499 7.32C28.4419 7.144 28.6579 7.056 28.8979 7.056C29.1379 7.056 29.3459 7.144 29.5219 7.32C29.7139 7.496 29.8099 7.76 29.8099 8.112C30.0019 7.616 30.1939 7.312 30.3859 7.2C30.5779 7.088 30.7059 7.144 30.7699 7.368C30.8499 7.576 30.7939 7.928 30.6019 8.424C31.0499 8.456 31.3699 8.616 31.5619 8.904C31.7699 9.192 31.8579 9.512 31.8259 9.864C31.7939 10.216 31.6579 10.52 31.4179 10.776C31.1779 11.016 30.8339 11.12 30.3859 11.088C30.3859 11.328 30.2659 11.52 30.0259 11.664C29.8019 11.808 29.5139 11.904 29.1619 11.952C28.8259 12 28.4819 12 28.1299 11.952C27.7939 11.904 27.5059 11.808 27.2659 11.664C27.0419 11.52 26.9299 11.328 26.9299 11.088C26.9299 11.408 26.8099 11.64 26.5699 11.784C26.3299 11.928 26.0659 11.984 25.7779 11.952C25.5059 11.92 25.2979 11.792 25.1539 11.568C25.1379 11.76 25.0739 11.928 24.9619 12.072C24.8659 12.216 24.7459 12.328 24.6019 12.408C24.7779 12.568 24.8579 12.76 24.8419 12.984C25.0339 13.032 25.2019 13.144 25.3459 13.32C25.4899 13.496 25.5619 13.736 25.5619 14.04C25.5619 13.752 25.7139 13.536 26.0179 13.392C26.3379 13.232 26.6979 13.152 27.0979 13.152C27.4979 13.152 27.8499 13.232 28.1539 13.392C28.4739 13.536 28.6339 13.752 28.6339 14.04C28.6339 13.544 28.7539 13.216 28.9939 13.056C29.2339 12.896 29.4659 12.896 29.6899 13.056C29.9299 13.216 30.0499 13.544 30.0499 14.04C30.2739 13.72 30.5299 13.576 30.8179 13.608C31.1059 13.64 31.3139 13.784 31.4419 14.04C31.5859 14.296 31.5459 14.584 31.3219 14.904C31.6579 15.032 31.8659 15.248 31.9459 15.552C32.0259 15.856 32.0099 16.168 31.8979 16.488C31.7859 16.792 31.5939 17.032 31.3219 17.208C31.0659 17.384 30.7699 17.408 30.4339 17.28C30.4339 17.712 30.3379 18.032 30.1459 18.24C29.9699 18.464 29.7619 18.576 29.5219 18.576C29.2819 18.576 29.0739 18.464 28.8979 18.24C28.7219 18.032 28.6339 17.712 28.6339 17.28C28.6339 17.728 28.4979 18.056 28.2259 18.264C27.9699 18.488 27.6739 18.6 27.3379 18.6C27.0019 18.6 26.6979 18.488 26.4259 18.264C26.1699 18.056 26.0419 17.728 26.0419 17.28C26.0419 17.68 25.9379 17.976 25.7299 18.168C25.5219 18.376 25.2739 18.48 24.9859 18.48C24.7139 18.48 24.4739 18.376 24.2659 18.168C24.0579 17.976 23.9539 17.68 23.9539 17.28C23.9539 17.744 23.8179 18.088 23.5459 18.312C23.2899 18.552 22.9939 18.672 22.6579 18.672C22.3219 18.672 22.0179 18.552 21.7459 18.312C21.4899 18.088 21.3619 17.744 21.3619 17.28C21.3619 17.68 21.2339 17.96 20.9779 18.12C20.7379 18.296 20.4579 18.312 20.1379 18.168C19.8179 18.04 19.5379 17.72 19.2979 17.208C19.0579 16.68 18.9459 15.928 18.9619 14.952ZM38.6897 16.392C38.2577 16.392 37.9297 16.28 37.7057 16.056C37.4817 15.832 37.3697 15.576 37.3697 15.288C37.3697 15 37.4817 14.744 37.7057 14.52C37.9297 14.296 38.2577 14.184 38.6897 14.184C38.2417 14.184 37.9057 14.08 37.6817 13.872C37.4577 13.648 37.3457 13.4 37.3457 13.128C37.3457 12.856 37.4577 12.616 37.6817 12.408C37.9057 12.184 38.2417 12.072 38.6897 12.072C38.3217 12.072 38.0417 11.952 37.8497 11.712C37.6737 11.456 37.5857 11.16 37.5857 10.824C37.5857 10.488 37.6737 10.2 37.8497 9.96C38.0417 9.704 38.3217 9.576 38.6897 9.576C38.0977 9.576 37.6977 9.48 37.4897 9.288C37.2817 9.096 37.2737 8.904 37.4657 8.712C37.6577 8.52 38.0417 8.424 38.6177 8.424C38.2497 8.44 37.9537 8.336 37.7297 8.112C37.5217 7.888 37.3857 7.616 37.3217 7.296C37.2737 6.976 37.3057 6.68 37.4177 6.408C37.3697 6.184 37.3457 5.928 37.3457 5.64C37.3457 5.992 37.2337 6.272 37.0097 6.48C36.7857 6.688 36.5057 6.824 36.1697 6.888C35.8497 6.952 35.5217 6.952 35.1857 6.888C34.8657 6.808 34.5937 6.664 34.3697 6.456C34.1617 6.248 34.0577 5.968 34.0577 5.616C33.6417 5.616 33.3297 5.536 33.1217 5.376C32.9137 5.2 32.8097 5 32.8097 4.776C32.8097 4.552 32.9137 4.352 33.1217 4.176C33.3297 4 33.6417 3.912 34.0577 3.912C33.5617 3.912 33.2257 3.792 33.0497 3.552C32.8897 3.296 32.8897 3.048 33.0497 2.808C33.2257 2.552 33.5617 2.424 34.0577 2.424C33.2257 2.056 32.8497 1.792 32.9297 1.632C32.9937 1.456 33.4417 1.552 34.2737 1.92C34.2737 1.392 34.3617 1.048 34.5377 0.887999C34.7137 0.711999 34.8897 0.711999 35.0657 0.887999C35.2417 1.048 35.3297 1.392 35.3297 1.92C35.3297 1.472 35.4177 1.136 35.5937 0.912C35.7857 0.688 36.0017 0.576 36.2417 0.576C36.4817 0.576 36.6897 0.688 36.8657 0.912C37.0577 1.136 37.1537 1.472 37.1537 1.92C37.1537 1.552 37.2337 1.28 37.3937 1.104C37.5697 0.911999 37.7697 0.816 37.9937 0.816C38.2337 0.816 38.4337 0.911999 38.5937 1.104C38.7697 1.28 38.8577 1.552 38.8577 1.92C38.8577 1.344 38.9857 0.967999 39.2417 0.792C39.4977 0.599999 39.7537 0.599999 40.0097 0.792C40.2657 0.967999 40.3937 1.344 40.3937 1.92C40.3937 1.52 40.5137 1.224 40.7537 1.032C41.0097 0.823999 41.2977 0.719999 41.6177 0.719999C41.9537 0.719999 42.2497 0.823999 42.5057 1.032C42.7617 1.224 42.8897 1.52 42.8897 1.92C42.8897 1.456 43.0337 1.112 43.3217 0.887999C43.6097 0.647999 43.9377 0.527999 44.3057 0.527999C44.6897 0.527999 45.0257 0.647999 45.3137 0.887999C45.6017 1.112 45.7457 1.456 45.7457 1.92C45.7457 1.504 45.8497 1.192 46.0577 0.983999C46.2817 0.759999 46.5297 0.647999 46.8017 0.647999C47.0897 0.647999 47.3377 0.759999 47.5457 0.983999C47.7537 1.192 47.8577 1.504 47.8577 1.92C48.3057 1.888 48.6417 1.944 48.8657 2.088C49.1057 2.232 49.2337 2.416 49.2497 2.64C49.2657 2.848 49.1697 3.048 48.9617 3.24C48.7537 3.416 48.4257 3.52 47.9777 3.552C48.4577 3.552 48.7777 3.664 48.9377 3.888C49.0977 4.096 49.0977 4.312 48.9377 4.536C48.7777 4.76 48.4577 4.872 47.9777 4.872C48.1377 5.176 48.1857 5.448 48.1217 5.688C48.0577 5.928 47.9297 6.096 47.7377 6.192C47.5457 6.288 47.3297 6.304 47.0897 6.24C46.8657 6.16 46.6737 5.96 46.5137 5.64C46.5137 6.12 46.3777 6.456 46.1057 6.648C45.8497 6.84 45.5777 6.896 45.2897 6.816C45.2737 7.088 45.1777 7.336 45.0017 7.56C44.8417 7.784 44.6337 7.928 44.3777 7.992C44.7617 8.152 44.8657 8.344 44.6897 8.568C44.5137 8.792 44.0657 8.904 43.3457 8.904C43.7617 8.904 44.0657 9.04 44.2577 9.312C44.4657 9.584 44.5697 9.896 44.5697 10.248C44.5697 10.6 44.4657 10.912 44.2577 11.184C44.0657 11.456 43.7617 11.592 43.3457 11.592C43.9537 11.592 44.3537 11.688 44.5457 11.88C44.7537 12.072 44.7537 12.264 44.5457 12.456C44.3537 12.648 43.9537 12.744 43.3457 12.744C43.7297 12.744 44.0097 12.832 44.1857 13.008C44.3777 13.168 44.4737 13.352 44.4737 13.56C44.4737 13.768 44.3777 13.96 44.1857 14.136C44.0097 14.296 43.7297 14.376 43.3457 14.376C43.9217 14.376 44.3057 14.488 44.4977 14.712C44.6897 14.936 44.6897 15.16 44.4977 15.384C44.3057 15.608 43.9217 15.72 43.3457 15.72C43.9217 15.72 44.2977 15.8 44.4737 15.96C44.6657 16.12 44.6657 16.28 44.4737 16.44C44.2977 16.6 43.9217 16.68 43.3457 16.68C43.4257 17.032 43.3617 17.328 43.1537 17.568C42.9617 17.808 42.7057 17.968 42.3857 18.048C42.0657 18.128 41.7617 18.112 41.4737 18C41.1857 17.872 41.0017 17.632 40.9217 17.28C40.9217 17.728 40.8017 18.064 40.5617 18.288C40.3377 18.512 40.0737 18.592 39.7697 18.528C39.4817 18.48 39.2257 18.28 39.0017 17.928C38.7777 17.576 38.6737 17.064 38.6897 16.392ZM51.1416 15.72C50.7576 15.72 50.4696 15.56 50.2776 15.24C50.0856 14.92 49.9896 14.552 49.9896 14.136C49.9896 13.72 50.0856 13.36 50.2776 13.056C50.4696 12.736 50.7576 12.576 51.1416 12.576C50.5976 12.576 50.2296 12.464 50.0376 12.24C49.8616 12.016 49.8616 11.792 50.0376 11.568C50.2296 11.344 50.5976 11.232 51.1416 11.232C50.6776 11.232 50.3256 11.12 50.0856 10.896C49.8616 10.656 49.7496 10.384 49.7496 10.08C49.7496 9.776 49.8616 9.512 50.0856 9.288C50.3256 9.048 50.6776 8.928 51.1416 8.928C50.7256 8.928 50.4136 8.808 50.2056 8.568C49.9976 8.312 49.8936 8.024 49.8936 7.704C49.8936 7.368 49.9976 7.072 50.2056 6.816C50.4136 6.56 50.7256 6.432 51.1416 6.432C50.7416 6.432 50.4456 6.272 50.2536 5.952C50.0616 5.616 49.9656 5.24 49.9656 4.824C49.9656 4.392 50.0616 4.016 50.2536 3.696C50.4456 3.36 50.7416 3.192 51.1416 3.192C50.6296 3.192 50.2856 3.104 50.1096 2.928C49.9496 2.752 49.9496 2.576 50.1096 2.4C50.2856 2.224 50.6296 2.136 51.1416 2.136C51.0296 1.512 51.0536 1.08 51.2136 0.839999C51.3736 0.599999 51.5656 0.567999 51.7896 0.743999C52.0296 0.903999 52.2056 1.296 52.3176 1.92C52.3176 1.552 52.4376 1.256 52.6776 1.032C52.9176 0.808 53.2216 0.656 53.5896 0.576C53.9576 0.496 54.3176 0.496 54.6696 0.576C55.0376 0.656 55.3416 0.808 55.5816 1.032C55.8216 1.256 55.9416 1.552 55.9416 1.92C55.9416 1.408 56.0456 1.072 56.2536 0.912C56.4616 0.735999 56.6696 0.735999 56.8776 0.912C57.0856 1.072 57.1896 1.408 57.1896 1.92C57.2216 1.488 57.4056 1.176 57.7416 0.983999C58.0776 0.775999 58.4616 0.687999 58.8936 0.719999C59.3256 0.735999 59.6936 0.863999 59.9976 1.104C60.3176 1.344 60.4696 1.672 60.4536 2.088C60.5976 1.496 60.7736 1.12 60.9816 0.959999C61.1896 0.799999 61.3416 0.839999 61.4376 1.08C61.5496 1.32 61.5336 1.736 61.3896 2.328C61.5976 1.928 61.8536 1.688 62.1576 1.608C62.4616 1.512 62.7416 1.536 62.9976 1.68C63.2536 1.808 63.4216 2.024 63.5016 2.328C63.5976 2.632 63.5416 2.976 63.3336 3.36C63.6216 3.152 63.9016 3.088 64.1736 3.168C64.4456 3.232 64.6616 3.384 64.8216 3.624C64.9816 3.848 65.0456 4.096 65.0136 4.368C64.9816 4.64 64.8136 4.88 64.5096 5.088C64.7976 5.088 65.0296 5.2 65.2056 5.424C65.3976 5.648 65.5256 5.936 65.5896 6.288C65.6696 6.624 65.6856 6.968 65.6376 7.32C65.6056 7.672 65.5016 7.968 65.3256 8.208C65.1656 8.448 64.9416 8.576 64.6536 8.592C64.9736 8.8 65.1256 9.072 65.1096 9.408C65.1096 9.728 65.0056 10.04 64.7976 10.344C64.6056 10.648 64.3576 10.864 64.0536 10.992C63.7496 11.104 63.4456 11.056 63.1416 10.848C63.3016 11.216 63.3496 11.528 63.2856 11.784C63.2216 12.024 63.0856 12.2 62.8776 12.312C62.6696 12.408 62.4456 12.408 62.2056 12.312C61.9656 12.2 61.7576 11.968 61.5816 11.616C61.6296 11.984 61.5336 12.28 61.2936 12.504C61.0536 12.728 60.7496 12.88 60.3816 12.96C60.0136 13.04 59.6616 13.032 59.3256 12.936C58.9896 12.84 58.7576 12.64 58.6296 12.336C58.7256 12.832 58.5896 13.232 58.2216 13.536C57.8696 13.84 57.4856 13.976 57.0696 13.944C57.1496 14.216 57.1656 14.496 57.1176 14.784C57.0696 15.072 56.9416 15.32 56.7336 15.528C56.5416 15.736 56.2776 15.84 55.9416 15.84C56.5336 15.84 56.9256 15.96 57.1176 16.2C57.3256 16.424 57.3256 16.656 57.1176 16.896C56.9256 17.136 56.5336 17.256 55.9416 17.256C55.9416 17.624 55.8216 17.904 55.5816 18.096C55.3576 18.288 55.0936 18.384 54.7896 18.384C54.4856 18.384 54.2136 18.288 53.9736 18.096C53.7496 17.92 53.6376 17.648 53.6376 17.28C53.6376 17.76 53.5336 18.08 53.3256 18.24C53.1176 18.4 52.9096 18.4 52.7016 18.24C52.4936 18.08 52.3896 17.76 52.3896 17.28C52.3896 17.664 52.3256 17.944 52.1976 18.12C52.0696 18.296 51.9176 18.336 51.7416 18.24C51.5656 18.16 51.4136 17.92 51.2856 17.52C51.1736 17.104 51.1256 16.504 51.1416 15.72ZM55.8216 6.768C56.1096 6.768 56.3256 6.896 56.4696 7.152C56.6136 7.408 56.7096 7.696 56.7576 8.016C56.8056 8.336 56.8296 8.592 56.8296 8.784C56.9096 8.592 57.0616 8.448 57.2856 8.352C57.5096 8.24 57.7496 8.184 58.0056 8.184C58.2776 8.184 58.5176 8.232 58.7256 8.328C58.5976 8.072 58.5976 7.888 58.7256 7.776C58.8696 7.648 59.0776 7.664 59.3496 7.824C59.2696 7.632 59.2536 7.408 59.3016 7.152C59.3496 6.896 59.4616 6.712 59.6376 6.6C59.4136 6.6 59.2456 6.512 59.1336 6.336C59.0376 6.16 59.0216 5.976 59.0856 5.784C58.9256 5.864 58.7816 5.856 58.6536 5.76C58.5256 5.648 58.4776 5.488 58.5096 5.28C58.3816 5.44 58.1896 5.544 57.9336 5.592C57.6776 5.64 57.4216 5.624 57.1656 5.544C56.9256 5.464 56.7736 5.32 56.7096 5.112C56.7576 5.496 56.6696 5.728 56.4456 5.808C56.4776 6.032 56.4376 6.248 56.3256 6.456C56.2296 6.664 56.0616 6.768 55.8216 6.768ZM68.0634 14.376C67.4874 14.376 67.1034 14.296 66.9114 14.136C66.7194 13.976 66.7194 13.824 66.9114 13.68C67.1034 13.52 67.4874 13.44 68.0634 13.44C67.6154 13.44 67.2794 13.336 67.0554 13.128C66.8314 12.92 66.7194 12.688 66.7194 12.432C66.7194 12.16 66.8314 11.928 67.0554 11.736C67.2794 11.528 67.6154 11.424 68.0634 11.424C67.6314 11.424 67.3114 11.336 67.1034 11.16C66.8954 10.984 66.7914 10.784 66.7914 10.56C66.7914 10.336 66.8954 10.136 67.1034 9.96C67.3114 9.784 67.6314 9.696 68.0634 9.696C67.6794 9.696 67.3834 9.576 67.1754 9.336C66.9834 9.096 66.8874 8.816 66.8874 8.496C66.8874 8.176 66.9834 7.896 67.1754 7.656C67.3834 7.416 67.6794 7.296 68.0634 7.296C67.5034 7.296 67.1274 7.184 66.9354 6.96C66.7434 6.736 66.7434 6.512 66.9354 6.288C67.1274 6.064 67.5034 5.952 68.0634 5.952C67.5834 5.952 67.2234 5.856 66.9834 5.664C66.7594 5.456 66.6474 5.224 66.6474 4.968C66.6474 4.696 66.7594 4.464 66.9834 4.272C67.2234 4.064 67.5834 3.96 68.0634 3.96C67.7914 3.832 67.6314 3.64 67.5834 3.384C67.5354 3.112 67.5674 2.848 67.6794 2.592C67.8074 2.32 67.9834 2.112 68.2074 1.968C68.4314 1.824 68.6794 1.808 68.9514 1.92C68.9514 1.536 69.0714 1.256 69.3114 1.08C69.5514 0.888 69.8314 0.792 70.1514 0.792C70.4714 0.792 70.7514 0.888 70.9914 1.08C71.2314 1.256 71.3514 1.536 71.3514 1.92C71.5274 1.68 71.7274 1.552 71.9514 1.536C72.1754 1.504 72.3754 1.552 72.5514 1.68C72.7274 1.808 72.8394 1.984 72.8874 2.208C72.9514 2.432 72.8954 2.664 72.7194 2.904C73.1354 2.904 73.4474 3.048 73.6554 3.336C73.8794 3.608 73.9914 3.928 73.9914 4.296C73.9914 4.648 73.8794 4.968 73.6554 5.256C73.4474 5.528 73.1354 5.664 72.7194 5.664C73.1194 5.664 73.4154 5.8 73.6074 6.072C73.8154 6.344 73.9194 6.656 73.9194 7.008C73.9194 7.36 73.8154 7.672 73.6074 7.944C73.4154 8.216 73.1194 8.352 72.7194 8.352C73.2634 8.352 73.6234 8.432 73.7994 8.592C73.9754 8.752 73.9754 8.912 73.7994 9.072C73.6234 9.232 73.2634 9.312 72.7194 9.312C73.2634 9.312 73.6394 9.416 73.8474 9.624C74.0554 9.832 74.0874 10.056 73.9434 10.296C73.8154 10.52 73.5194 10.664 73.0554 10.728C73.4874 10.744 73.8154 10.944 74.0394 11.328C74.2794 11.712 74.3834 12.104 74.3514 12.504C74.6714 12.424 74.9994 12.416 75.3354 12.48C75.6714 12.544 75.9514 12.688 76.1754 12.912C76.4154 13.136 76.5354 13.432 76.5354 13.8C76.5354 13.448 76.6474 13.168 76.8714 12.96C77.1114 12.752 77.3914 12.616 77.7114 12.552C78.0474 12.488 78.3834 12.488 78.7194 12.552C79.0554 12.616 79.3354 12.752 79.5594 12.96C79.7834 13.168 79.8954 13.448 79.8954 13.8C80.3114 13.768 80.6314 13.832 80.8554 13.992C81.0794 14.152 81.1994 14.352 81.2154 14.592C81.2314 14.816 81.1354 15.024 80.9274 15.216C80.7354 15.408 80.4314 15.512 80.0154 15.528C80.2714 15.768 80.3834 16.032 80.3514 16.32C80.3354 16.608 80.2234 16.872 80.0154 17.112C79.8074 17.336 79.5594 17.48 79.2714 17.544C78.9834 17.592 78.7114 17.504 78.4554 17.28C78.4554 17.664 78.3194 17.944 78.0474 18.12C77.7754 18.312 77.4634 18.408 77.1114 18.408C76.7594 18.408 76.4474 18.312 76.1754 18.12C75.9034 17.944 75.7674 17.664 75.7674 17.28C75.7674 17.68 75.6154 17.984 75.3114 18.192C75.0234 18.4 74.6794 18.504 74.2794 18.504C73.8794 18.504 73.5274 18.4 73.2234 18.192C72.9354 17.984 72.7914 17.68 72.7914 17.28C72.7914 17.68 72.6474 17.984 72.3594 18.192C72.0714 18.4 71.7354 18.504 71.3514 18.504C70.9674 18.504 70.6314 18.4 70.3434 18.192C70.0554 17.984 69.9114 17.68 69.9114 17.28C69.9114 17.76 69.8154 18.096 69.6234 18.288C69.4314 18.496 69.2074 18.512 68.9514 18.336C68.7114 18.16 68.4954 17.76 68.3034 17.136C68.1274 16.496 68.0474 15.576 68.0634 14.376ZM83.0869 14.952C82.7029 14.952 82.4069 14.824 82.1989 14.568C82.0069 14.296 81.9109 13.984 81.9109 13.632C81.9109 13.264 82.0069 12.952 82.1989 12.696C82.4069 12.424 82.7029 12.288 83.0869 12.288C82.7029 12.288 82.4149 12.184 82.2229 11.976C82.0469 11.768 81.9589 11.536 81.9589 11.28C81.9589 11.008 82.0469 10.776 82.2229 10.584C82.4149 10.376 82.7029 10.272 83.0869 10.272C82.4949 10.272 82.0949 10.152 81.8869 9.912C81.6949 9.672 81.6949 9.432 81.8869 9.192C82.0949 8.952 82.4949 8.832 83.0869 8.832C82.6869 8.832 82.3829 8.736 82.1749 8.544C81.9669 8.352 81.8629 8.128 81.8629 7.872C81.8629 7.616 81.9669 7.392 82.1749 7.2C82.3829 7.008 82.6869 6.912 83.0869 6.912C82.6389 6.912 82.3029 6.768 82.0789 6.48C81.8709 6.192 81.7669 5.864 81.7669 5.496C81.7669 5.112 81.8709 4.776 82.0789 4.488C82.3029 4.2 82.6389 4.056 83.0869 4.056C82.7829 3.96 82.5909 3.784 82.5109 3.528C82.4469 3.256 82.4549 2.984 82.5349 2.712C82.6309 2.424 82.7829 2.2 82.9909 2.04C83.2149 1.864 83.4789 1.824 83.7829 1.92C83.7829 1.424 83.8709 1.096 84.0469 0.935999C84.2229 0.776 84.3989 0.776 84.5749 0.935999C84.7509 1.096 84.8389 1.424 84.8389 1.92C84.8389 1.632 84.9589 1.4 85.1989 1.224C85.4389 1.048 85.7349 0.935999 86.0869 0.887999C86.4549 0.823999 86.8149 0.823999 87.1669 0.887999C87.5349 0.935999 87.8389 1.048 88.0789 1.224C88.3349 1.4 88.4629 1.632 88.4629 1.92C88.4629 1.408 88.5829 1.072 88.8229 0.912C89.0789 0.735999 89.3349 0.735999 89.5909 0.912C89.8469 1.072 89.9749 1.408 89.9749 1.92C89.9749 1.488 90.0789 1.168 90.2869 0.959999C90.4949 0.751999 90.7269 0.647999 90.9829 0.647999C91.2549 0.647999 91.4869 0.751999 91.6789 0.959999C91.8869 1.168 91.9909 1.488 91.9909 1.92C91.9909 1.632 92.1029 1.4 92.3269 1.224C92.5509 1.048 92.8229 0.935999 93.1429 0.887999C93.4789 0.823999 93.8149 0.823999 94.1509 0.887999C94.4869 0.935999 94.7669 1.048 94.9909 1.224C95.2149 1.4 95.3269 1.632 95.3269 1.92C95.8069 1.968 96.1189 2.072 96.2629 2.232C96.4229 2.376 96.4149 2.52 96.2389 2.664C96.0629 2.792 95.7349 2.832 95.2549 2.784C95.6709 2.832 95.9749 2.984 96.1669 3.24C96.3589 3.496 96.4389 3.784 96.4069 4.104C96.3749 4.408 96.2389 4.672 95.9989 4.896C95.7749 5.104 95.4549 5.192 95.0389 5.16C95.0389 5.672 94.9509 6.016 94.7749 6.192C94.5989 6.352 94.4229 6.352 94.2469 6.192C94.0709 6.016 93.9829 5.672 93.9829 5.16C93.9829 5.64 93.8549 5.968 93.5989 6.144C93.3589 6.304 93.1109 6.304 92.8549 6.144C92.5989 5.968 92.4709 5.64 92.4709 5.16C92.4709 5.4 92.3509 5.592 92.1109 5.736C91.8709 5.88 91.5749 5.968 91.2229 6C90.8869 6.032 90.5509 6.024 90.2149 5.976C89.8789 5.912 89.6229 5.792 89.4469 5.616C89.4789 5.808 89.4629 5.992 89.3989 6.168C89.3349 6.344 89.2309 6.496 89.0869 6.624C89.2789 6.752 89.4309 6.912 89.5429 7.104C89.6709 7.28 89.7429 7.472 89.7589 7.68C89.8869 7.488 90.0789 7.36 90.3349 7.296C90.5909 7.216 90.8549 7.192 91.1269 7.224C91.3989 7.256 91.6309 7.352 91.8229 7.512C92.0149 7.656 92.1109 7.856 92.1109 8.112C92.1109 7.76 92.1989 7.496 92.3749 7.32C92.5669 7.144 92.7829 7.056 93.0229 7.056C93.2629 7.056 93.4709 7.144 93.6469 7.32C93.8389 7.496 93.9349 7.76 93.9349 8.112C94.1269 7.616 94.3189 7.312 94.5109 7.2C94.7029 7.088 94.8309 7.144 94.8949 7.368C94.9749 7.576 94.9189 7.928 94.7269 8.424C95.1749 8.456 95.4949 8.616 95.6869 8.904C95.8949 9.192 95.9829 9.512 95.9509 9.864C95.9189 10.216 95.7829 10.52 95.5429 10.776C95.3029 11.016 94.9589 11.12 94.5109 11.088C94.5109 11.328 94.3909 11.52 94.1509 11.664C93.9269 11.808 93.6389 11.904 93.2869 11.952C92.9509 12 92.6069 12 92.2549 11.952C91.9189 11.904 91.6309 11.808 91.3909 11.664C91.1669 11.52 91.0549 11.328 91.0549 11.088C91.0549 11.408 90.9349 11.64 90.6949 11.784C90.4549 11.928 90.1909 11.984 89.9029 11.952C89.6309 11.92 89.4229 11.792 89.2789 11.568C89.2629 11.76 89.1989 11.928 89.0869 12.072C88.9909 12.216 88.8709 12.328 88.7269 12.408C88.9029 12.568 88.9829 12.76 88.9669 12.984C89.1589 13.032 89.3269 13.144 89.4709 13.32C89.6149 13.496 89.6869 13.736 89.6869 14.04C89.6869 13.752 89.8389 13.536 90.1429 13.392C90.4629 13.232 90.8229 13.152 91.2229 13.152C91.6229 13.152 91.9749 13.232 92.2789 13.392C92.5989 13.536 92.7589 13.752 92.7589 14.04C92.7589 13.544 92.8789 13.216 93.1189 13.056C93.3589 12.896 93.5909 12.896 93.8149 13.056C94.0549 13.216 94.1749 13.544 94.1749 14.04C94.3989 13.72 94.6549 13.576 94.9429 13.608C95.2309 13.64 95.4389 13.784 95.5669 14.04C95.7109 14.296 95.6709 14.584 95.4469 14.904C95.7829 15.032 95.9909 15.248 96.0709 15.552C96.1509 15.856 96.1349 16.168 96.0229 16.488C95.9109 16.792 95.7189 17.032 95.4469 17.208C95.1909 17.384 94.8949 17.408 94.5589 17.28C94.5589 17.712 94.4629 18.032 94.2709 18.24C94.0949 18.464 93.8869 18.576 93.6469 18.576C93.4069 18.576 93.1989 18.464 93.0229 18.24C92.8469 18.032 92.7589 17.712 92.7589 17.28C92.7589 17.728 92.6229 18.056 92.3509 18.264C92.0949 18.488 91.7989 18.6 91.4629 18.6C91.1269 18.6 90.8229 18.488 90.5509 18.264C90.2949 18.056 90.1669 17.728 90.1669 17.28C90.1669 17.68 90.0629 17.976 89.8549 18.168C89.6469 18.376 89.3989 18.48 89.1109 18.48C88.8389 18.48 88.5989 18.376 88.3909 18.168C88.1829 17.976 88.0789 17.68 88.0789 17.28C88.0789 17.744 87.9429 18.088 87.6709 18.312C87.4149 18.552 87.1189 18.672 86.7829 18.672C86.4469 18.672 86.1429 18.552 85.8709 18.312C85.6149 18.088 85.4869 17.744 85.4869 17.28C85.4869 17.68 85.3589 17.96 85.1029 18.12C84.8629 18.296 84.5829 18.312 84.2629 18.168C83.9429 18.04 83.6629 17.72 83.4229 17.208C83.1829 16.68 83.0709 15.928 83.0869 14.952Z" fill="#CB643A"/>
</svg>
