<?xml version="1.0" standalone="no"?>
<!DOCTYPE svg PUBLIC "-//W3C//DTD SVG 20010904//EN"
 "http://www.w3.org/TR/2001/REC-SVG-20010904/DTD/svg10.dtd">
<svg version="1.0" xmlns="http://www.w3.org/2000/svg"
 width="752.000000pt" height="752.000000pt" viewBox="0 0 752.000000 752.000000"
 preserveAspectRatio="xMidYMid meet">
<metadata>
Created by potrace 1.14, written by Peter Selinger 2001-2017
</metadata>
<g transform="translate(0.000000,752.000000) scale(0.100000,-0.100000)"
fill="#000000" stroke="none">
<path d="M2375 7125 c-22 -6 -44 -13 -50 -14 -26 -7 -100 -45 -112 -57 -8 -8
-18 -14 -23 -14 -16 0 -128 -118 -170 -179 -90 -133 -166 -345 -185 -516 -3
-22 -7 -60 -10 -85 -7 -60 -8 -252 -1 -320 13 -126 15 -146 19 -165 3 -11 8
-40 12 -65 15 -94 81 -317 120 -407 41 -93 107 -222 140 -271 19 -30 35 -57
35 -62 0 -5 3 -10 8 -12 4 -1 27 -29 50 -60 53 -69 176 -193 214 -216 15 -9
28 -20 28 -24 0 -4 6 -8 14 -8 8 0 16 -4 18 -9 6 -16 174 -89 238 -103 203
-44 402 28 550 198 46 53 138 208 146 244 0 3 6 17 12 32 6 15 18 53 27 85 9
32 20 69 25 83 5 14 12 47 15 74 3 27 8 52 10 55 6 12 18 178 17 266 0 152
-12 260 -47 440 -33 166 -133 425 -221 575 -38 65 -86 134 -96 138 -4 2 -8 8
-8 14 0 31 -255 278 -287 278 -7 0 -13 4 -13 8 0 12 -140 80 -180 88 -8 1 -33
7 -55 13 -51 14 -188 12 -240 -4z"/>
<path d="M4883 7125 c-24 -7 -43 -11 -43 -8 0 3 -7 0 -15 -7 -8 -7 -15 -10
-15 -7 0 11 -130 -61 -193 -107 -83 -59 -237 -212 -237 -235 0 -5 -3 -11 -7
-13 -12 -5 -55 -65 -98 -138 -36 -59 -125 -234 -125 -244 0 -3 -5 -17 -12 -33
-14 -34 -13 -31 -23 -68 -4 -16 -11 -34 -15 -40 -7 -11 -36 -110 -31 -110 1 0
-2 -13 -8 -28 -6 -15 -13 -42 -16 -60 -3 -18 -10 -48 -15 -67 -23 -91 -34
-226 -33 -400 0 -149 7 -237 20 -290 3 -14 7 -34 8 -45 6 -56 54 -202 98 -295
54 -114 136 -221 227 -295 34 -27 140 -83 170 -89 14 -3 39 -8 55 -12 68 -16
188 -9 275 17 51 14 193 87 198 100 2 5 8 9 13 9 11 0 40 25 127 105 68 63
199 230 223 283 8 18 17 32 21 32 5 0 8 6 8 14 0 7 10 26 23 42 12 16 20 29
18 29 -2 0 5 18 16 40 20 39 93 220 97 240 2 6 9 30 16 55 34 114 64 266 77
395 14 132 8 386 -12 490 -27 136 -54 228 -95 320 -15 33 -28 65 -30 70 -7 27
-91 137 -150 196 -70 70 -127 108 -212 141 -66 25 -240 33 -305 13z"/>
<path d="M542 5574 c-116 -20 -218 -75 -300 -164 -36 -39 -103 -135 -106 -153
-1 -7 -12 -32 -24 -57 -27 -56 -58 -176 -69 -266 -14 -119 -6 -389 14 -444 2
-8 7 -31 9 -50 8 -62 51 -212 89 -315 40 -107 134 -308 147 -313 4 -2 8 -8 8
-13 0 -16 117 -187 181 -265 52 -64 125 -138 214 -219 103 -93 313 -203 440
-231 65 -13 201 -13 263 1 241 56 416 280 468 600 10 62 12 340 3 393 -4 26
-10 63 -13 82 -28 190 -94 388 -203 605 -40 80 -165 282 -182 295 -4 3 -18 21
-31 40 -21 31 -217 230 -251 255 -8 6 -33 25 -55 43 -23 17 -47 32 -53 32 -6
0 -11 3 -11 8 0 4 -10 12 -23 18 -120 61 -155 76 -209 93 -112 36 -203 43
-306 25z"/>
<path d="M6848 5585 c-2 -2 -24 -6 -48 -8 -37 -4 -79 -13 -140 -32 -44 -14
-104 -43 -179 -87 -34 -21 -67 -38 -71 -38 -5 0 -10 -3 -12 -7 -1 -5 -28 -27
-58 -50 -116 -88 -285 -277 -370 -413 -19 -30 -37 -57 -40 -60 -17 -14 -141
-279 -172 -365 -39 -109 -71 -211 -74 -235 -1 -8 -9 -53 -18 -100 -28 -149
-36 -309 -21 -445 6 -58 8 -74 21 -132 3 -16 7 -33 8 -40 1 -7 5 -16 9 -19 4
-4 7 -16 7 -26 0 -24 80 -198 91 -198 4 0 10 -8 13 -17 21 -64 217 -213 279
-213 7 0 17 -3 21 -7 11 -12 48 -16 136 -17 119 -1 155 5 238 35 39 15 72 25
72 22 0 -2 7 3 16 11 8 9 24 16 35 16 10 0 19 4 19 8 0 5 12 14 28 21 26 12
96 56 119 76 6 6 26 21 45 35 35 26 199 188 233 231 131 162 229 330 318 544
25 61 74 210 82 249 2 11 4 21 5 21 1 0 3 7 5 15 1 8 7 40 14 70 27 137 33
197 32 330 -1 124 -2 142 -16 230 -43 279 -201 493 -420 568 -45 16 -198 35
-207 27z"/>
<path d="M3758 4226 c-1 -2 -30 -6 -63 -10 -80 -8 -90 -10 -160 -35 -33 -12
-65 -23 -70 -24 -6 -1 -27 -13 -46 -25 -20 -12 -41 -22 -48 -22 -6 0 -11 -4
-11 -8 0 -5 -11 -14 -24 -20 -14 -6 -35 -19 -48 -29 -29 -23 -197 -191 -221
-221 -20 -25 -195 -289 -232 -350 -5 -9 -15 -21 -21 -27 -6 -5 -33 -39 -60
-75 -27 -36 -53 -70 -59 -76 -5 -6 -28 -33 -50 -60 -22 -26 -54 -64 -72 -84
-17 -19 -53 -59 -80 -89 -94 -106 -262 -271 -379 -371 -16 -14 -85 -62 -154
-107 -235 -154 -296 -201 -402 -308 -212 -212 -312 -463 -312 -780 1 -81 11
-215 19 -238 2 -6 6 -23 9 -37 8 -52 59 -187 93 -250 81 -149 203 -280 361
-387 18 -13 37 -23 42 -23 4 0 10 -4 12 -8 4 -12 178 -94 253 -121 58 -20 120
-36 215 -56 117 -24 274 -24 580 0 30 2 102 7 160 10 58 4 128 8 155 10 291
20 983 28 1175 12 91 -7 120 -10 220 -22 25 -3 65 -8 90 -10 25 -3 72 -8 105
-12 79 -9 444 -10 520 -1 402 46 676 179 844 410 22 32 47 70 53 85 7 15 15
30 19 33 23 19 82 238 96 351 9 84 4 294 -7 294 -1 0 -3 11 -5 25 -11 84 -38
166 -90 275 -24 50 -50 97 -59 104 -9 7 -16 18 -16 23 0 9 -67 101 -115 157
-60 71 -221 214 -326 291 -71 52 -234 210 -334 324 -33 38 -69 78 -80 90 -11
11 -57 68 -103 124 -46 57 -87 109 -93 115 -5 7 -37 48 -69 92 -33 44 -63 85
-68 90 -4 6 -23 33 -42 60 -19 28 -37 52 -42 53 -4 2 -8 9 -8 16 0 7 -8 21
-18 32 -22 24 -135 204 -187 299 -73 134 -152 220 -287 318 -148 105 -313 171
-463 183 -38 3 -75 7 -82 9 -6 2 -13 2 -15 1z"/>
</g>
</svg>
